<svg xmlns="http://www.w3.org/2000/svg" width="28" height="28" viewBox="0 0 28 28">
  <g id="fabook-icon" opacity="0.707">
    <g id="Group_662" data-name="Group 662">
      <g id="Group_661" data-name="Group 661">
        <path id="Path_205" data-name="Path 205" d="M210.73,153.825V155.1h-1.276v1.914h1.276v5.743h2.552v-5.743h1.7l.217-1.914h-1.914v-1.117c0-.517.051-.791.849-.791H215.2v-1.921h-1.71C211.445,151.272,210.73,152.229,210.73,153.825Z" transform="translate(-198.008 -143.015)" fill="#fff"/>
        <path id="Path_206" data-name="Path 206" d="M14,0A14,14,0,1,0,28,14,14,14,0,0,0,14,0Zm0,26.727A12.727,12.727,0,1,1,26.727,14,12.727,12.727,0,0,1,14,26.727Z" fill="#fff"/>
      </g>
    </g>
  </g>
</svg>
