<svg xmlns="http://www.w3.org/2000/svg" width="28" height="28" viewBox="0 0 28 28">
  <g id="instagram-icon" opacity="0.701">
    <g id="Group_664" data-name="Group 664">
      <g id="Group_663" data-name="Group 663">
        <path id="Path_207" data-name="Path 207" d="M14,0A14,14,0,1,0,28,14,14,14,0,0,0,14,0Zm0,26.727A12.727,12.727,0,1,1,26.727,14,12.727,12.727,0,0,1,14,26.727Z" fill="#fff"/>
        <path id="Path_208" data-name="Path 208" d="M149.819,139.636h-7.636a2.545,2.545,0,0,0-2.545,2.545v7.636a2.545,2.545,0,0,0,2.545,2.545h7.636a2.545,2.545,0,0,0,2.545-2.545v-7.636A2.545,2.545,0,0,0,149.819,139.636Zm-1.273,1.909h1.909v1.909h-1.909ZM146,143.454A2.545,2.545,0,1,1,143.455,146,2.545,2.545,0,0,1,146,143.454Zm5.091,6.364a1.273,1.273,0,0,1-1.273,1.273h-7.636a1.273,1.273,0,0,1-1.273-1.273v-4.455h1.336a3.818,3.818,0,1,0,7.573.636,3.769,3.769,0,0,0-.064-.636h1.336v4.455Z" transform="translate(-132.001 -132)" fill="#fff"/>
      </g>
    </g>
  </g>
</svg>
