<svg xmlns="http://www.w3.org/2000/svg" width="28" height="28" viewBox="0 0 28 28">
  <g id="twitter-icon" opacity="0.7">
    <g id="Group_666" data-name="Group 666">
      <g id="Group_665" data-name="Group 665">
        <path id="Path_209" data-name="Path 209" d="M163.651,163.318a5.288,5.288,0,0,1-1.661.636,2.628,2.628,0,0,0-1.909-.815,2.59,2.59,0,0,0-2.609,2.545,2.548,2.548,0,0,0,.07.585,7.452,7.452,0,0,1-5.384-2.685,2.513,2.513,0,0,0,.808,3.411,2.635,2.635,0,0,1-1.184-.325v.032a2.584,2.584,0,0,0,2.094,2.545,2.667,2.667,0,0,1-1.177.045,2.609,2.609,0,0,0,2.437,1.782,5.288,5.288,0,0,1-3.226,1.114,5.414,5.414,0,0,1-.636-.038,7.477,7.477,0,0,0,4,1.158,7.318,7.318,0,0,0,7.451-7.183q0-.064,0-.129v-.331a5.289,5.289,0,0,0,1.273-1.33,5.282,5.282,0,0,1-1.5.407A2.59,2.59,0,0,0,163.651,163.318Z" transform="translate(-143.001 -154.218)" fill="#f7f7f7"/>
        <path id="Path_210" data-name="Path 210" d="M14,0A14,14,0,1,0,28,14,14,14,0,0,0,14,0Zm0,26.727A12.727,12.727,0,1,1,26.727,14,12.727,12.727,0,0,1,14,26.727Z" fill="#f7f7f7"/>
      </g>
    </g>
  </g>
</svg>
