<svg xmlns="http://www.w3.org/2000/svg" width="28" height="28" viewBox="0 0 28 28">
  <g id="youtube-icon" opacity="0.694">
    <g id="Group_668" data-name="Group 668">
      <g id="Group_667" data-name="Group 667">
        <path id="Path_211" data-name="Path 211" d="M227.72,143.41h.261a1.05,1.05,0,0,0,1.05-1.044v-1.7a1.05,1.05,0,0,0-1.044-1.031h-.261a1.05,1.05,0,0,0-1.05,1.044v1.7A1.05,1.05,0,0,0,227.72,143.41Zm-.261-2.806a.395.395,0,0,1,.789,0v1.826a.395.395,0,0,1-.789,0Z" transform="translate(-214.28 -132)" fill="#fff"/>
        <path id="Path_212" data-name="Path 212" d="M169.951,122.666h.923v-2.03l1.05-2.876h-.859l-.636,1.909-.636-1.909h-.948l1.12,2.876Z" transform="translate(-159.61 -111.32)" fill="#fff"/>
        <path id="Path_213" data-name="Path 213" d="M283.588,143.41a1.636,1.636,0,0,0,.986-.458v.395h.764v-3.71h-.764v2.876s-.261.305-.509.305-.261-.2-.261-.2v-2.985H283V142.9A.6.6,0,0,0,283.588,143.41Z" transform="translate(-267.52 -132)" fill="#fff"/>
        <path id="Path_214" data-name="Path 214" d="M277.456,286.6a.548.548,0,0,0-.395.2v2.635a.522.522,0,0,0,.395.172c.395,0,.395-.439.395-.439v-2.125S277.78,286.6,277.456,286.6Z" transform="translate(-261.909 -270.93)" fill="#fff"/>
        <path id="Path_215" data-name="Path 215" d="M14,0A14,14,0,1,0,28,14,14,14,0,0,0,14,0Zm0,26.727A12.727,12.727,0,1,1,26.727,14,12.727,12.727,0,0,1,14,26.727Z" fill="#fff"/>
        <path id="Path_216" data-name="Path 216" d="M332.729,286.6c-.395,0-.395.439-.395.439v.566h.789v-.566S333.123,286.6,332.729,286.6Z" transform="translate(-314.159 -270.93)" fill="#fff"/>
        <path id="Path_217" data-name="Path 217" d="M139.864,221.224h-.046s-2.4-.134-4.817-.134-4.83.127-4.83.127a1.909,1.909,0,0,0-1.972,1.844c0,.022,0,.043,0,.065a15.076,15.076,0,0,0,0,4.862,1.909,1.909,0,0,0,1.908,1.91h.065s2.374.127,4.83.127,4.83-.127,4.83-.127a1.909,1.909,0,0,0,1.972-1.844c0-.022,0-.043,0-.065a17.817,17.817,0,0,0,.2-2.444,17.353,17.353,0,0,0-.2-2.444A1.909,1.909,0,0,0,139.864,221.224Zm-7.72,2.133h-.961v4.951h-.948v-4.951h-.961v-.815h2.889Zm2.5,4.951h-.8v-.375a1.661,1.661,0,0,1-.986.439.585.585,0,0,1-.592-.5V223.98h.821v3.634s0,.191.261.191.528-.312.528-.312V223.98h.789Zm2.361.064a1.056,1.056,0,0,1-.853-.42v.356h-.859v-5.765h.853v1.871a1.273,1.273,0,0,1,.853-.426c.528,0,.725.439.725,1.005l.006,2.374S137.731,228.371,137.006,228.371Zm3.812-2.049h-1.642v.942s0,.439.395.439.395-.439.395-.439v-.445h.853v.687a1.107,1.107,0,0,1-1.184.878,1.209,1.209,0,0,1-1.273-.878v-2.456a1.107,1.107,0,0,1,1.273-1.063,1.037,1.037,0,0,1,1.184,1.063v1.273Z" transform="translate(-121.001 -209)" fill="#fff"/>
      </g>
    </g>
  </g>
</svg>
